<svg aria-hidden="true" style="position: absolute; width: 0; height: 0; overflow: hidden;" version="1.1" xmlns="http://www.w3.org/2000/svg" xmlns:xlink="http://www.w3.org/1999/xlink">
<defs>
<symbol id="icon-facebook" viewBox="0 0 32 32">
<path d="M21.337 5.316h2.921v-5.090c-1.238-0.144-2.673-0.226-4.126-0.226-0.046 0-0.092 0-0.138 0l0.007-0c-4.213 0-7.096 2.651-7.096 7.522v4.481h-4.651v5.69h4.649v14.316h5.7v-14.314h4.461l0.708-5.692h-5.172v-3.921c0.002-1.644 0.444-2.769 2.737-2.769z"></path>
</symbol>
<symbol id="icon-instagram" viewBox="0 0 32 32">
<path d="M31.978 9.411c-0.074-1.701-0.35-2.871-0.744-3.883-0.424-1.112-1.054-2.060-1.849-2.84l-0.001-0.001c-0.78-0.791-1.725-1.418-2.779-1.824l-0.054-0.018c-1.020-0.394-2.181-0.67-3.881-0.744-1.717-0.080-2.263-0.1-6.604-0.1-4.347 0-4.892 0.020-6.598 0.094-1.701 0.074-2.869 0.35-3.881 0.744-1.112 0.424-2.060 1.054-2.84 1.849l-0.001 0.001c-0.792 0.78-1.419 1.725-1.826 2.779l-0.018 0.054c-0.394 1.020-0.668 2.181-0.744 3.881-0.080 1.715-0.1 2.261-0.1 6.604 0 4.347 0.020 4.892 0.094 6.598 0.074 1.701 0.35 2.871 0.744 3.883 0.406 1.076 1.038 2.039 1.851 2.839 0.8 0.812 1.771 1.444 2.833 1.845 1.020 0.394 2.181 0.67 3.883 0.744 1.707 0.076 2.251 0.094 6.598 0.094 4.345 0 4.889-0.020 6.596-0.094 1.701-0.074 2.871-0.35 3.883-0.744 2.157-0.85 3.833-2.526 4.664-4.628l0.019-0.055c0.394-1.020 0.67-2.181 0.744-3.883 0.076-1.707 0.094-2.251 0.094-6.598 0-4.345-0.006-4.889-0.080-6.596zM29.097 22.479c-0.070 1.564-0.332 2.409-0.552 2.971-0.551 1.401-1.639 2.489-3.003 3.028l-0.036 0.013c-0.562 0.218-1.412 0.48-2.969 0.548-1.689 0.076-2.195 0.094-6.466 0.094s-4.783-0.020-6.466-0.094c-1.564-0.068-2.409-0.33-2.971-0.55-0.721-0.269-1.335-0.676-1.837-1.193l-0.001-0.001c-0.517-0.504-0.923-1.118-1.183-1.804l-0.011-0.034c-0.22-0.562-0.48-1.412-0.55-2.969-0.074-1.689-0.094-2.197-0.094-6.466 0-4.271 0.020-4.783 0.094-6.466 0.070-1.564 0.332-2.409 0.55-2.971 0.256-0.694 0.664-1.324 1.2-1.839 0.52-0.532 1.144-0.938 1.841-1.194 0.56-0.22 1.412-0.48 2.969-0.55 1.689-0.074 2.195-0.094 6.466-0.094 4.277 0 4.781 0.020 6.466 0.094 1.562 0.070 2.407 0.332 2.969 0.55 0.694 0.256 1.326 0.662 1.841 1.194 0.53 0.52 0.936 1.144 1.192 1.841 0.22 0.56 0.482 1.41 0.55 2.969 0.076 1.689 0.094 2.195 0.094 6.466s-0.018 4.771-0.092 6.458z"></path>
<path d="M16.065 7.784c-4.464 0.102-8.043 3.744-8.043 8.223s3.58 8.121 8.034 8.222l0.009 0c4.464-0.102 8.043-3.744 8.043-8.223s-3.58-8.121-8.034-8.222l-0.009-0zM16.065 21.343c-2.947 0-5.336-2.389-5.336-5.336s2.389-5.336 5.336-5.336v0c2.947 0 5.336 2.389 5.336 5.336s-2.389 5.336-5.336 5.336v0zM26.532 7.46c0 1.061-0.86 1.921-1.921 1.921s-1.921-0.86-1.921-1.921v0c0-1.061 0.86-1.921 1.921-1.921s1.921 0.86 1.921 1.921v0z"></path>
</symbol>
<symbol id="icon-linkedin" viewBox="0 0 32 32">
<path d="M32.002 32.010h0.008v-11.744c0-5.742-1.236-10.167-7.95-10.167-3.227 0-5.394 1.773-6.278 3.451h-0.094v-2.913h-6.364v21.373h6.63v-10.583c0-2.785 0.528-5.478 3.977-5.478 3.401 0 3.451 3.179 3.451 5.658v10.403h6.622zM0.528 10.639h6.636v21.371h-6.636v-21.371zM3.843 0c-2.121 0-3.841 1.721-3.841 3.841s1.721 3.881 3.841 3.881c2.123 0 3.845-1.761 3.845-3.881s-1.727-3.841-3.847-3.841z"></path>
</symbol>
<symbol id="icon-twitter" viewBox="0 0 32 32">
<path d="M32.010 6.080c-1.1 0.494-2.376 0.858-3.713 1.029l-0.068 0.007c1.36-0.817 2.382-2.079 2.874-3.581l0.013-0.046c-1.198 0.723-2.592 1.274-4.077 1.574l-0.084 0.014c-1.2-1.279-2.902-2.076-4.789-2.076-3.624 0-6.562 2.938-6.562 6.562v0c0 0.52 0.044 1.020 0.152 1.496-5.47-0.276-10.281-2.879-13.499-6.83l-0.027-0.034c-0.563 0.949-0.896 2.092-0.896 3.312 0 2.265 1.146 4.262 2.889 5.444l0.023 0.015c-1.092-0.030-2.11-0.325-2.998-0.823l0.033 0.017v0.072c0.004 3.165 2.238 5.807 5.215 6.44l0.043 0.008c-0.501 0.137-1.076 0.216-1.669 0.216-0.018 0-0.036-0-0.054-0l0.003 0c-0.031 0.001-0.067 0.001-0.103 0.001-0.403 0-0.797-0.041-1.177-0.119l0.038 0.006c0.873 2.624 3.274 4.497 6.123 4.571l0.009 0c-2.215 1.745-5.045 2.799-8.122 2.799-0.005 0-0.010 0-0.015 0h0.001c-0.538 0-1.054-0.024-1.57-0.090 2.827 1.847 6.289 2.945 10.007 2.945 0.021 0 0.042-0 0.063-0h-0.003c12.076 0 18.678-10.003 18.678-18.674 0-0.29-0.010-0.57-0.024-0.848 1.299-0.937 2.391-2.067 3.259-3.36l0.030-0.047z"></path>
</symbol>
</defs>
</svg>
